<svg width="23" height="25" viewBox="0 0 23 25" fill="none" xmlns="http://www.w3.org/2000/svg">
<path d="M17.403 6.29883C18.6711 6.52686 19.7111 7.21045 20.5241 8.34961C21.2394 9.35889 21.7272 10.6284 21.987 12.1582C22.215 13.5581 22.1979 14.9575 21.9382 16.3574C21.548 18.6685 20.7677 20.6055 19.5973 22.168C18.1989 24.0562 16.4435 25 14.3302 25C13.8097 25 13.2414 24.8374 12.6232 24.5117C12.2004 24.2515 11.7292 24.1211 11.2087 24.1211C10.6882 24.1211 10.2174 24.2515 9.79411 24.5117C9.17595 24.8374 8.60758 25 8.08708 25C5.9738 25 4.21843 24.0562 2.81999 22.168C1.64958 20.6055 0.869304 18.6685 0.479168 16.3574C0.219402 14.9575 0.202312 13.5581 0.430339 12.1582C0.690105 10.6284 1.1779 9.35889 1.89323 8.34961C2.70622 7.21045 3.74626 6.52686 5.01432 6.29883C5.7946 6.16846 6.86735 6.28271 8.23307 6.64062C9.40348 6.96631 10.3952 7.35693 11.2082 7.8125C12.0212 7.35693 13.0129 6.96631 14.1833 6.64062C15.5495 6.28271 16.6227 6.16846 17.403 6.29883ZM14.7204 4.29688C14.2653 4.72021 13.6632 5.0293 12.9157 5.22461C12.3952 5.38721 11.8268 5.46875 11.2087 5.46875L10.4772 5.41992C10.4123 4.96436 10.4123 4.44336 10.4772 3.85742C10.6076 2.68555 10.9811 1.79053 11.5988 1.17188C12.0539 0.748535 12.6559 0.439453 13.4035 0.244141C13.924 0.081543 14.4924 0 15.1105 0L15.842 0.0488281L15.8908 0.78125C15.8908 1.3999 15.8092 1.96924 15.6471 2.49023C15.4523 3.23877 15.1437 3.84131 14.7204 4.29688Z" fill="#FF5050"/>
</svg>
