<?xml version="1.0" encoding="UTF-8" standalone="no"?>
<!-- Created with Inkscape (http://www.inkscape.org/) -->

<svg
   width="423.33331mm"
   height="317.5mm"
   viewBox="0 0 423.33331 317.5"
   version="1.1"
   id="svg1"
   xml:space="preserve"
   xmlns="http://www.w3.org/2000/svg"
   xmlns:svg="http://www.w3.org/2000/svg"><defs
     id="defs1" /><g
     id="layer1"
     transform="translate(-220)"><path
       d="m 290.65677,174.43564 h 8.44611 V 162.048 h 12.06588 v 12.38764 h 8.44612 v -31.37129 h -8.44612 v 11.74412 h -12.06588 v -11.74412 h -8.44611 z m 32.98006,0 h 8.44612 v -31.37129 h -8.44612 z m 28.23414,-16.81179 v 6.43513 h 6.43513 c -0.16087,2.81537 -2.33273,4.02196 -7.15908,4.02196 -6.31448,0 -6.99821,-0.92505 -6.99821,-9.33095 0,-8.40589 0.68373,-9.33094 6.99821,-9.33094 6.31447,0 6.99821,0.48263 6.91777,4.82635 h 8.84831 c 0.0804,-9.33095 -3.05669,-11.66369 -15.76608,-11.66369 -12.66918,0 -15.84653,3.21757 -15.84653,16.16828 0,12.95072 3.17735,16.16828 15.84653,16.16828 4.54481,0 7.11886,-1.68922 8.12435,-5.51008 v 5.02745 h 7.64173 v -16.81179 z m 18.66193,16.81179 h 8.44611 V 162.048 h 12.06588 v 12.38764 h 8.44612 v -31.37129 h -8.44612 v 11.74412 h -12.06588 v -11.74412 h -8.44611 z m 45.0459,0 h 8.44612 V 162.048 h 12.06588 v 12.38764 h 8.44612 v -31.37129 h -8.44612 v 11.74412 h -12.06588 v -11.74412 h -8.44612 z m 48.46461,-25.01659 c 6.71668,0 7.44063,0.92505 7.44063,9.33094 0,8.4059 -0.72395,9.33095 -7.44063,9.33095 -6.71667,0 -7.44062,-0.92505 -7.44062,-9.33095 0,-8.40589 0.72395,-9.33094 7.44062,-9.33094 z m -16.28893,9.33094 c 0,12.95072 3.25778,16.16828 16.28893,16.16828 13.03116,0 16.28894,-3.21756 16.28894,-16.16828 0,-12.95071 -3.25778,-16.16828 -16.28894,-16.16828 -13.03115,0 -16.28893,3.21757 -16.28893,16.16828 z m 63.22524,2.81538 v -18.50102 h -8.44611 v 18.50102 c 0,5.87206 -0.56308,6.51557 -5.46987,6.51557 -4.90679,0 -5.46986,-0.64351 -5.46986,-6.51557 v -18.50102 h -8.44612 v 18.50102 c 0,10.69841 2.77515,13.3529 13.91598,13.3529 11.14083,0 13.91598,-2.65449 13.91598,-13.3529 z m 17.6966,6.51557 c -5.38943,0 -6.03294,-0.40219 -6.03294,-4.18284 h -8.84832 c 0,8.8081 3.09691,11.02017 15.12257,11.02017 11.70391,0 14.72038,-1.76966 14.72038,-8.92875 0,-6.31448 -3.13713,-8.48633 -14.88125,-10.77885 -4.26328,-0.88483 -5.42965,-1.48813 -5.42965,-3.13713 0,-2.37296 0.60329,-2.65449 5.59052,-2.65449 5.06767,0 5.67097,0.44241 5.67097,4.62525 h 8.84831 c 0,-9.17007 -2.97625,-11.46259 -14.51928,-11.46259 -11.46258,0 -14.43883,1.89033 -14.43883,9.41139 0,5.83184 2.57405,7.76238 12.83005,9.81358 5.91228,1.16637 7.48085,1.93054 7.48085,3.74043 0,2.29251 -0.64352,2.53383 -6.11338,2.53383 z m 18.17927,-25.01659 v 31.37129 h 25.82098 v -7.23953 h -17.37486 v -5.22855 h 15.68564 v -6.83733 h -15.68564 v -4.82635 h 17.29443 v -7.23953 z"
       id="text4"
       style="font-size:40.2196px;font-family:'Basement Grotesque';-inkscape-font-specification:'Basement Grotesque, Normal';text-align:center;letter-spacing:0px;text-orientation:upright;text-anchor:middle;fill:#ffffff;stroke-width:0.603295"
       aria-label="HIGH HOUSE" /></g></svg>
